# xmcd
#
# Track frame offsets: 
#        150
#        25706
#        56604
#        84036
#        117857
#        145010
#
# Disc length: 2269 seconds
#
# Revision: 3
# Processed by: cddbd v1.5.2PL0 Copyright (c) Steve Scherf et al.
# Submitted via: ExactAudioCopy v0.99pb4
#
DISCID=3d08db06
DTITLE=McCoy Tyner - Tender Moments
DYEAR=1967
DGENRE=Jazz
TTITLE0=Mode To John
TTITLE1=Man From Tanganyika
TTITLE2=The High Priest
TTITLE3=Utopia
TTITLE4=All My Yesterdays
TTITLE5=Lee Plus Three
EXTD=
EXTT0=
EXTT1=
EXTT2=
EXTT3=
EXTT4=
EXTT5=
PLAYORDER=
